<svg width="160" height="203" viewBox="0 0 160 203" fill="none" xmlns="http://www.w3.org/2000/svg">
<path d="M142.8 15.3082H65.5942C59.4619 7.14816 49.4129 0 38.046 0C19.3718 0 4.23504 14.5901 4.23504 33.2642C4.23504 51.9425 19.3718 66.0552 38.046 66.0552C52.2485 66.0552 64.3987 56.1082 69.413 43.8682H80.6534L88.8012 35.7163L96.9449 43.8682H102.024L110.168 35.7163L118.316 43.8682H123.391L131.539 35.7163L139.687 43.8682H142.8V45.0146L142.09 45.1819L158.165 29.425L142.8 15.3082ZM27.1034 42.277C21.7015 42.277 17.3155 37.891 17.3155 32.4809C17.3155 27.0708 21.7015 22.6889 27.1034 22.6889C32.5135 22.6889 36.8995 27.0708 36.8995 32.4809C36.8995 37.891 32.5135 42.277 27.1034 42.277ZM150.96 121.388H148.704L123.636 75.9982C122.555 74.0357 119.83 72.4282 117.586 72.4282H41.5344C39.2904 72.4282 36.565 74.0357 35.4838 75.9982L10.4122 121.388H8.16C3.672 121.388 0 125.06 0 129.548V170.348C0 174.836 3.672 178.508 8.16 178.508H16.32V190.748C16.32 197.48 21.828 202.988 28.56 202.988H32.64C39.372 202.988 44.88 197.48 44.88 190.748V178.508H114.24V190.748C114.24 197.48 119.748 202.988 126.48 202.988H130.56C137.292 202.988 142.8 197.48 142.8 190.748V178.508H150.96C155.448 178.508 159.12 174.836 159.12 170.348V129.548C159.12 125.06 155.448 121.388 150.96 121.388ZM22.44 154.028C16.8055 154.028 12.24 149.463 12.24 143.828C12.24 138.194 16.8055 133.628 22.44 133.628C28.0745 133.628 32.64 138.194 32.64 143.828C32.64 149.463 28.0745 154.028 22.44 154.028ZM30.6 121.388L47.1362 88.3198C48.1399 86.3083 50.796 84.6682 53.04 84.6682H106.08C108.324 84.6682 110.98 86.3083 111.984 88.3198L128.52 121.388H30.6ZM136.68 154.028C131.046 154.028 126.48 149.463 126.48 143.828C126.48 138.194 131.046 133.628 136.68 133.628C142.314 133.628 146.88 138.194 146.88 143.828C146.88 149.463 142.314 154.028 136.68 154.028Z" fill="black"/>
</svg>
